<?xml version="1.0" encoding="UTF-8"?>
<svg version="1.1" viewBox="0 0 2000 2000" width="1280" height="1280" xmlns="http://www.w3.org/2000/svg" fill='none'>
<path transform="translate(381,496)" d="m0 0h48l27 3 27 6 35 10 19 8 22 11 18 10 16 12 15 10 5 5 12 11 10 8 8 10 12 13 9 12 9 13 7 10 12 22 12 24 9 24 10 43 4 26 1 14v42l-2 20-6 29-7 28-6 17-10 22-9 16-6 12-11 16-10 14-9 11-9 10h-2l-2 4-11 12-14 12-15 12-12 8-19 12-15 9-18 8-31 12-24 7-24 4-38 3h-29l-38-3-22-4-26-8-31-12-17-8-15-9-15-10-8-5-16-13-13-10-24-24-10-13-9-10-10-16-7-11-10-17-8-18-8-19-7-19-6-23-3-17-2-19-1-19v-36l2-27 4-25 8-27 12-30 9-21 16-25 7-11 9-12 9-10 9-12 11-11 8-7 8-8 19-14 17-12 13-8 36-18 15-6 40-11 27-5zm-104 202-9 2-11 6-10 8-7 8-5 13-1 5v155l3 14 6 10 8 9 10 7 8 3 6 1h181l14-3 10-6 8-9 8-12 4-14 1-14 15 6 16 7 19 9 6 2h8l9-6 3-6 1-4v-143l-3-6-6-5-6-2-8 1-15 5-28 13-11 5-1-14-4-13-5-10-10-11-14-8-12-3z" fill="#0094AF"/>
<path transform="translate(1277,751)" d="m0 0h13l15 3 11 6 10 9 4 7h2l6-8 7-6 17-8 14-3h13l16 3 12 6 7 5 6 8 6 12 2 8 1 10v126l-2 1h-44l-1-1-1-115-2-11-4-8-5-4-10-2h-8l-10 3-8 5-5 8-1 4-1 120-1 1h-46l-1-1-1-121-3-10-5-6-12-3h-8l-9 2-10 6-4 7-1 125-2 1h-46l-1-3v-171l1-1h44l1 1v15l5-3 6-5 16-8 9-3z" fill="#FDFDFD"/>
<path transform="translate(796,693)" d="m0 0h47l1 2v103l5-5 11-14 9-14 8-8 14-20 8-9 11-14 10-14 6-7h60l-4 6-18 21-9 13-11 12-10 14-9 10-12 16-10 12 1 4 11 17 9 15 8 10 10 17 12 17 20 32 8 10 5 8-1 3h-56l-8-12-9-14-8-14-9-12-10-16-9-15-7-10-4 1-9 11-5 6-7 6-1 42v25l-2 2h-46l-1-1v-235z" fill="#FDFDFD"/>
<path transform="translate(1559,751)" d="m0 0h11l16 3 17 8 9 8 10 16 5 11 5 19 2 19v16l-3 22-5 15-8 16-7 10-10 8-11 6-11 4-5 1h-19l-12-3-14-9-6-5-1 80-16 1h-29l-2-1v-241h43l1 1 1 12h2l13-9 10-5zm-12 37-10 3-9 6-5 6-1 3v73l3 5 12 8 12 3h8l11-4 10-8 5-11 2-9 1-9v-27l-2-12-7-14-4-5-7-5-10-3z" fill="#FDFDFD"/>
<path transform="translate(1661,755)" d="m0 0h47l1 118 2 9 4 6 6 4 14 2 11-2 14-7 3-4 1-126h48l1 1v172l-3 2h-42l-1-2v-15l-11 9-10 6-12 4-5 1h-21l-13-3-8-4-13-11-6-8-5-12-2-13z" fill="#FDFDFD"/>
<path transform="translate(1e3 755)" d="m0 0h47l1 118 3 10 5 6 8 4 11 1 11-2 12-6 5-4 1-2 1-125h47v174l-2 1h-41l-1-1-2-16-12 10-16 8-10 2h-22l-13-4-12-7-8-8-8-16-4-15-1-16z" fill="#FDFDFD"/>
<path transform="translate(1850,681)" d="m0 0h44l3 1v247l-2 1h-44l-1-1z" fill="#FDFDFD"/>
<path transform="translate(303,750)" d="m0 0h67l1 1v32l-1 1h-68v-33z" fill="#0094AF"/>
</svg>
